<?xml version="1.0" encoding="utf-8"?>
<!-- Generator: Adobe Illustrator 25.4.1, SVG Export Plug-In . SVG Version: 6.00 Build 0)  -->
<svg version="1.1" id="Layer_1" xmlns="http://www.w3.org/2000/svg" xmlns:xlink="http://www.w3.org/1999/xlink" x="0px" y="0px"
	 viewBox="0 0 457 185" style="enable-background:new 0 0 457 185;" xml:space="preserve">
<style type="text/css">
	.st0{fill:#15304D;}
	.st1{fill:#01A6FE;}
	.st2{fill-rule:evenodd;clip-rule:evenodd;fill:#01A6FE;}
	.st3{fill-rule:evenodd;clip-rule:evenodd;fill:#15304D;}
</style>
<g>
	<g>
		<path class="st0" d="M23.2,141.14H10.78v7.05h11.48v7.1H10.78v14.23H2.69v-35.47H23.2V141.14z"/>
		<path class="st0" d="M43.37,133.4c9.85,0,17.84,8,17.84,18.36s-7.65,18.4-17.84,18.4c-10.49,0-17.89-8.04-17.89-18.4
			S33.61,133.4,43.37,133.4z M43.37,162.34c6.45,0,9.12-5.29,9.12-10.58s-2.84-10.58-9.12-10.58c-6.24,0-9.16,5.29-9.16,10.58
			S36.75,162.34,43.37,162.34z"/>
		<path class="st0" d="M81.08,133.4c9.85,0,17.84,8,17.84,18.36s-7.65,18.4-17.84,18.4c-10.49,0-17.89-8.04-17.89-18.4
			S71.32,133.4,81.08,133.4z M81.08,162.34c6.45,0,9.12-5.29,9.12-10.58s-2.84-10.58-9.12-10.58c-6.24,0-9.16,5.29-9.16,10.58
			S74.46,162.34,81.08,162.34z"/>
		<path class="st0" d="M112.77,134.04c9.72,0,17.89,7.4,17.89,17.72c0,10.36-8.13,17.76-17.89,17.76H102.5v-35.47H112.77z
			 M111.83,162.29c5.98,0,10.06-4.56,10.11-10.49c0-5.93-4.09-10.54-10.11-10.54h-1.25v21.03H111.83z"/>
		<path class="st0" d="M163.86,149.61l-5.68,19.91h-8.99l-10.1-35.47h8.99l6.06,24.34h0.22l6.45-24.34h6.11l6.45,24.34h0.22
			l6.06-24.34h8.94l-10.1,35.47h-8.94L163.86,149.61z"/>
		<path class="st0" d="M198.6,169.52h-8.08v-35.47h8.08V169.52z"/>
		<path class="st0" d="M199.46,134.04h24.94v7.1h-8.43v28.38h-8.08v-28.38h-8.43V134.04z"/>
		<path class="st0" d="M235.41,169.52h-8.08v-35.47h8.08v14.15h11.44v-14.15h8.08v35.47h-8.08v-14.23h-11.44V169.52z"/>
		<path class="st1" d="M292.34,141.14h-12.43v7.05h11.48v7.1h-11.48v14.23h-8.08v-35.47h20.51V141.14z"/>
		<path class="st1" d="M308.89,134.04c6.58,0,11.57,3.57,11.57,10.54c0,5.33-2.92,8.9-7.27,10.28l12.21,14.66h-10.28l-10.84-14.02
			v14.02h-8.08v-35.47H308.89z M305.24,149.78c3.05,0,6.71-0.21,6.71-4.64c0-4.43-3.65-4.64-6.71-4.64h-0.95v9.29H305.24z"/>
		<path class="st1" d="M335.08,169.52H327v-35.47h8.08V169.52z"/>
		<path class="st1" d="M360.54,141.14h-12.21v7.05h11.7v7.1h-11.7v7.14h12.21v7.09h-20.3v-35.47h20.3V141.14z"/>
		<path class="st1" d="M373.26,169.52h-8.08v-35.47h8.08l14.1,22.02h0.09v-22.02h8.08v35.47h-8.08l-14.1-22.02h-0.09V169.52z"/>
		<path class="st1" d="M410.97,134.04c9.72,0,17.89,7.4,17.89,17.72c0,10.36-8.13,17.76-17.89,17.76H400.7v-35.47H410.97z
			 M410.03,162.29c5.98,0,10.06-4.56,10.1-10.49c0-5.93-4.08-10.54-10.1-10.54h-1.25v21.03H410.03z"/>
		<path class="st1" d="M455.65,136.75l-3.27,6.45c0,0-3.53-2.45-7.18-2.45c-2.75,0-4.21,1.25-4.21,3.18c0,1.98,3.35,3.4,7.4,5.12
			c3.96,1.68,8.3,5.03,8.3,9.67c0,8.47-6.45,11.44-13.37,11.44c-8.3,0-13.33-4.69-13.33-4.69l4.04-6.79c0,0,4.73,4,8.69,4
			c1.76,0,5.12-0.17,5.12-3.48c0-2.58-3.78-3.74-8-5.85c-4.26-2.11-6.75-5.42-6.75-9.12c0-6.62,5.85-10.84,11.57-10.84
			C451.09,133.4,455.65,136.75,455.65,136.75z"/>
	</g>
	<g>
		<path class="st0" d="M65.55,178.98l-1.74,6.1h-2.75l-3.09-10.87h2.75l1.86,7.46h0.07l1.98-7.46h1.87l1.98,7.46h0.07l1.86-7.46
			h2.74l-3.09,10.87h-2.74L65.55,178.98z"/>
		<path class="st0" d="M79.61,185.07h-2.48v-10.87h2.48v4.33h3.5v-4.33h2.48v10.87h-2.48v-4.36h-3.5V185.07z"/>
		<path class="st0" d="M100.5,185.07h-2.66l-0.8-2.17H92.9l-0.8,2.17h-2.66l4.38-10.87h2.29L100.5,185.07z M94.98,177.57h-0.03
			l-1.21,3.16h2.45L94.98,177.57z"/>
		<path class="st0" d="M103.03,174.21h7.64v2.17h-2.58v8.69h-2.48v-8.69h-2.58V174.21z"/>
		<path class="st0" d="M131.91,185.07h-2.66l-0.8-2.17h-4.13l-0.8,2.17h-2.66l4.38-10.87h2.29L131.91,185.07z M126.4,177.57h-0.03
			l-1.21,3.16h2.45L126.4,177.57z"/>
		<path class="st0" d="M139.65,174.21c2.01,0,3.54,1.09,3.54,3.23c0,1.63-0.9,2.73-2.23,3.15l3.74,4.49h-3.15l-3.32-4.29v4.29h-2.48
			v-10.87H139.65z M138.53,179.03c0.93,0,2.05-0.07,2.05-1.42c0-1.36-1.12-1.42-2.05-1.42h-0.29v2.84H138.53z"/>
		<path class="st0" d="M154.83,176.38h-3.74v2.16h3.58v2.17h-3.58v2.19h3.74v2.17h-6.22v-10.87h6.22V176.38z"/>
		<path class="st0" d="M167.3,174.21l2.27,3.48l2.26-3.48h2.98l-4,5.99v4.87h-2.48v-4.87l-4-5.99H167.3z"/>
		<path class="st0" d="M183.62,174.01c3.02,0,5.46,2.45,5.46,5.62s-2.34,5.64-5.46,5.64c-3.21,0-5.48-2.46-5.48-5.64
			S180.63,174.01,183.62,174.01z M183.62,182.88c1.98,0,2.79-1.62,2.79-3.24c0-1.62-0.87-3.24-2.79-3.24c-1.91,0-2.8,1.62-2.8,3.24
			C180.82,181.26,181.59,182.88,183.62,182.88z"/>
		<path class="st0" d="M201.95,181.21c0,2.69-1.47,4.06-4.24,4.06c-2.77,0-4.24-1.37-4.24-4.06v-7.01h2.48v6.28
			c0,1.82,0.55,2.35,1.76,2.35c1.21,0,1.76-0.53,1.76-2.35v-6.28h2.48V181.21z"/>
		<path class="st0" d="M216.32,185.07h-2.48v-10.87h2.48V185.07z"/>
		<path class="st0" d="M223.8,185.07h-2.48v-10.87h2.48l4.32,6.74h0.03v-6.74h2.48v10.87h-2.48l-4.32-6.74h-0.03V185.07z"/>
		<path class="st0" d="M241.33,174.21h7.64v2.17h-2.58v8.69h-2.48v-8.69h-2.58V174.21z"/>
		<path class="st0" d="M255.77,185.07h-2.48v-10.87h2.48v4.33h3.5v-4.33h2.48v10.87h-2.48v-4.36h-3.5V185.07z"/>
		<path class="st0" d="M272.97,176.38h-3.74v2.16h3.58v2.17h-3.58v2.19h3.74v2.17h-6.22v-10.87h6.22V176.38z"/>
		<path class="st0" d="M293.3,178.63h-0.07l-2.23,6.37h-1.47l-2.23-6.37h-0.07l-0.51,6.44h-2.48l0.97-10.87h2.63l2.41,6.27
			l2.41-6.27h2.63l0.97,10.87h-2.48L293.3,178.63z"/>
		<path class="st0" d="M305.71,174.01c3.02,0,5.46,2.45,5.46,5.62s-2.34,5.64-5.46,5.64c-3.21,0-5.48-2.46-5.48-5.64
			S302.72,174.01,305.71,174.01z M305.71,182.88c1.97,0,2.79-1.62,2.79-3.24c0-1.62-0.87-3.24-2.79-3.24
			c-1.91,0-2.81,1.62-2.81,3.24C302.9,181.26,303.68,182.88,305.71,182.88z"/>
		<path class="st0" d="M320.68,174.01c3.02,0,5.46,2.45,5.46,5.62s-2.34,5.64-5.46,5.64c-3.21,0-5.48-2.46-5.48-5.64
			S317.7,174.01,320.68,174.01z M320.68,182.88c1.97,0,2.79-1.62,2.79-3.24c0-1.62-0.87-3.24-2.79-3.24c-1.91,0-2.81,1.62-2.81,3.24
			C317.88,181.26,318.66,182.88,320.68,182.88z"/>
		<path class="st0" d="M333.82,174.21c2.98,0,5.48,2.27,5.48,5.43c0,3.17-2.49,5.44-5.48,5.44h-3.15v-10.87H333.82z M333.53,182.86
			c1.83,0,3.08-1.4,3.09-3.21c0-1.82-1.25-3.23-3.09-3.23h-0.38v6.44H333.53z"/>
		<path class="st0" d="M357.11,176.38h-3.81v2.16h3.52v2.17h-3.52v4.36h-2.48v-10.87h6.28V176.38z"/>
		<path class="st0" d="M366.71,174.01c3.02,0,5.46,2.45,5.46,5.62s-2.34,5.64-5.46,5.64c-3.21,0-5.48-2.46-5.48-5.64
			S363.73,174.01,366.71,174.01z M366.71,182.88c1.97,0,2.79-1.62,2.79-3.24c0-1.62-0.87-3.24-2.79-3.24
			c-1.91,0-2.81,1.62-2.81,3.24C363.91,181.26,364.69,182.88,366.71,182.88z"/>
		<path class="st0" d="M380.58,174.21c2.01,0,3.54,1.09,3.54,3.23c0,1.63-0.9,2.73-2.23,3.15l3.74,4.49h-3.15l-3.32-4.29v4.29h-2.48
			v-10.87H380.58z M379.46,179.03c0.93,0,2.05-0.07,2.05-1.42c0-1.36-1.12-1.42-2.05-1.42h-0.29v2.84H379.46z"/>
		<path class="st0" d="M389.06,176.5c0-0.07,0.57-2.49,3.5-2.49c1.98,0,3.74,1.29,3.74,3.15c0,1.29-0.96,2.08-2.23,2.62
			c-0.45,0.2-0.46,0.57-0.46,1v0.74h-2.17v-1.44c0-0.58,0.03-1.05,0.62-1.43c0.8-0.51,1.55-0.55,1.55-1.49
			c0-0.63-0.47-1.08-1.07-1.08c-0.95,0-1.41,0.79-1.55,1.36L389.06,176.5z M394.04,183.77c0,0.83-0.67,1.5-1.51,1.5
			c-0.83,0-1.5-0.67-1.5-1.5c0-0.84,0.67-1.51,1.5-1.51C393.37,182.26,394.04,182.93,394.04,183.77z"/>
	</g>
	<g>
		<path class="st2" d="M191.31,62.98c3.84,10.14,11.9,18.21,22.04,22.05l-2.96,11.06c-14.06-4.95-25.19-16.08-30.14-30.14
			L191.31,62.98z"/>
		<path class="st2" d="M192.22,34c-2.15,4.75-3.35,10.03-3.35,15.59c0,2.08,0.17,4.13,0.49,6.12l-11.06,2.96
			c-0.55-2.94-0.84-5.98-0.84-9.08c0-7.63,1.74-14.86,4.84-21.31L192.22,34z"/>
		<path class="st2" d="M213.35,14.14c-7.02,2.65-13.04,7.34-17.36,13.33l-9.91-5.72c5.86-8.55,14.36-15.16,24.31-18.66L213.35,14.14
			z"/>
		<path class="st2" d="M242.34,15.05c-3.56-1.61-7.41-2.68-11.45-3.12c-1.36-0.15-2.74-0.22-4.14-0.22c-2.08,0-4.13,0.17-6.12,0.49
			l-2.96-11.06c2.94-0.55,5.98-0.84,9.08-0.84c1.39,0,2.78,0.06,4.14,0.17c6.11,0.51,11.9,2.13,17.17,4.66L242.34,15.05z"/>
		<path class="st2" d="M262.19,36.19c-2.66-7.02-7.34-13.05-13.33-17.36l5.72-9.91c8.55,5.86,15.16,14.36,18.67,24.31L262.19,36.19z
			"/>
		<path class="st2" d="M261.28,65.17c2.15-4.75,3.35-10.03,3.35-15.59c0-2.08-0.17-4.13-0.49-6.12l11.06-2.96
			c0.55,2.94,0.84,5.98,0.84,9.08c0,7.63-1.74,14.86-4.83,21.31L261.28,65.17z"/>
		<path class="st2" d="M253.54,76.35c1.44-1.44,2.77-3,3.96-4.66l9.91,5.72c-1.71,2.5-3.65,4.83-5.79,6.97
			c-0.03,0.03-0.05,0.05-0.08,0.08l-0.02,0.02l-10.73,10.73c1.46,4.43,0.43,9.51-3.07,13.01l-9.43,9.43l-3.82,3.82
			c-0.99,0.99-2.61,0.99-3.6,0c-0.99-0.99-0.99-2.61,0-3.6l3.82-3.82l10.3-10.3c0.99-0.99,0.99-2.61,0-3.6
			c-0.99-0.99-2.61-0.99-3.6,0l-10.3,10.3l-0.22,0.22l-3.6,3.6c-0.99,0.99-2.61,0.99-3.6,0c-0.99-0.99-0.99-2.61,0-3.6l3.82-3.82
			l3.38-3.38l5.57-5.57l1.35-1.35c0.99-0.99,0.99-2.61,0-3.6c-0.99-0.99-2.61-0.99-3.6,0l-3.31,3.31l-2.56,2.56l-4.42,4.42
			l-3.82,3.82c-0.99,0.99-2.61,0.99-3.6,0c-0.99-0.99-0.99-2.61,0-3.6l3.82-3.82l1.08-1.08l8.35-8.35c0.37-0.37,0.75-0.71,1.15-1.02
			c3.41-2.67,7.9-3.35,11.86-2.05l10.77-10.77C253.53,76.37,253.54,76.36,253.54,76.35"/>
		<path class="st3" d="M226.76,35.6L226.76,35.6c7.58,0,13.78,6.2,13.78,13.78c0,7.58-6.2,13.78-13.78,13.78
			c-7.58,0-13.78-6.2-13.78-13.78C212.98,41.8,219.18,35.6,226.76,35.6 M226.75,80.96l15.79-15.79c8.66-8.66,8.66-22.91,0-31.58
			c-8.66-8.66-22.91-8.66-31.58,0c-8.66,8.66-8.66,22.91,0,31.58L226.75,80.96z"/>
	</g>
</g>
</svg>
