<svg id="Layer_1" data-name="Layer 1" xmlns="http://www.w3.org/2000/svg" viewBox="0 0 408.32 155.49"><defs><style>.cls-1,.cls-2{fill:#fff;}.cls-2{fill-rule:evenodd;}</style></defs><path class="cls-1" d="M32.2,122.94a1,1,0,0,1,.75.32,1.07,1.07,0,0,1,.32.8v4a1,1,0,0,1-.32.79,1,1,0,0,1-.75.33H20.93a.77.77,0,0,0-.6.3,1,1,0,0,0-.26.64v4.56a1,1,0,0,0,.26.67.81.81,0,0,0,.6.28H32.2a1.07,1.07,0,0,1,.75.3,1,1,0,0,1,.32.77v4.09a1,1,0,0,1-.32.77,1.07,1.07,0,0,1-.75.3H20.93a.78.78,0,0,0-.6.28,1,1,0,0,0-.26.67v9.54a1.09,1.09,0,0,1-.3.76,1,1,0,0,1-.77.32H14.91a1,1,0,0,1-.77-.32,1.09,1.09,0,0,1-.3-.76V124.06a1.1,1.1,0,0,1,.3-.82,1,1,0,0,1,.77-.3Z" transform="translate(-13.84 -14.25)"/><path class="cls-1" d="M36.71,138.25a15.36,15.36,0,0,1,1.23-6.13,15.76,15.76,0,0,1,3.35-5,15.59,15.59,0,0,1,5-3.35,15.77,15.77,0,0,1,12.21,0,15.57,15.57,0,0,1,8.34,8.34,15.36,15.36,0,0,1,1.23,6.13,15.18,15.18,0,0,1-1.23,6.1,15.63,15.63,0,0,1-8.34,8.32,15.77,15.77,0,0,1-12.21,0,15.59,15.59,0,0,1-5-3.35,15.89,15.89,0,0,1-3.35-5A15.18,15.18,0,0,1,36.71,138.25Zm6.28,0A9.81,9.81,0,0,0,43.7,142a8.75,8.75,0,0,0,2,3,9.37,9.37,0,0,0,3,2,9.25,9.25,0,0,0,3.72.73,9.45,9.45,0,0,0,3.74-.73,9.57,9.57,0,0,0,3-2,9.08,9.08,0,0,0,2-3,9.77,9.77,0,0,0,0-7.46,9.19,9.19,0,0,0-2-3,9.29,9.29,0,0,0-3-2,9.45,9.45,0,0,0-3.74-.73,9.25,9.25,0,0,0-3.72.73,9.1,9.1,0,0,0-3,2,8.86,8.86,0,0,0-2,3A9.81,9.81,0,0,0,43,138.25Z" transform="translate(-13.84 -14.25)"/><path class="cls-1" d="M71.5,138.25a15.36,15.36,0,0,1,1.23-6.13,15.57,15.57,0,0,1,8.34-8.34,15.19,15.19,0,0,1,6.08-1.23,15.36,15.36,0,0,1,6.13,1.23,15.59,15.59,0,0,1,5,3.35,15.76,15.76,0,0,1,3.35,5,15.36,15.36,0,0,1,1.23,6.13,15.18,15.18,0,0,1-1.23,6.1,15.89,15.89,0,0,1-3.35,5,15.59,15.59,0,0,1-5,3.35,15.36,15.36,0,0,1-6.13,1.23,15.19,15.19,0,0,1-6.08-1.23,15.63,15.63,0,0,1-8.34-8.32A15.18,15.18,0,0,1,71.5,138.25Zm6.28,0a9.62,9.62,0,0,0,.71,3.74,8.75,8.75,0,0,0,2,3,9.43,9.43,0,0,0,3,2,9.25,9.25,0,0,0,3.72.73A9.49,9.49,0,0,0,93.88,145a9.1,9.1,0,0,0,2-3,9.89,9.89,0,0,0,0-7.46,9.22,9.22,0,0,0-2-3,9.08,9.08,0,0,0-3-2,9.38,9.38,0,0,0-3.74-.73,9.26,9.26,0,0,0-6.68,2.73,8.86,8.86,0,0,0-2,3A9.63,9.63,0,0,0,77.78,138.25Z" transform="translate(-13.84 -14.25)"/><path class="cls-1" d="M108.22,153.47a1,1,0,0,1-.77-.32,1.09,1.09,0,0,1-.3-.76V124.06a1.1,1.1,0,0,1,.3-.82,1,1,0,0,1,.77-.3H117A15.51,15.51,0,0,1,123,124.1a14.55,14.55,0,0,1,4.84,3.22,15.06,15.06,0,0,1,3.2,4.86,15.6,15.6,0,0,1,1.17,6.07,15.41,15.41,0,0,1-1.17,6,14.65,14.65,0,0,1-8,8,15.69,15.69,0,0,1-6.06,1.16Zm8.73-6.24a9.93,9.93,0,0,0,3.74-.68,8.1,8.1,0,0,0,2.84-1.9,8.29,8.29,0,0,0,1.78-2.83,10.43,10.43,0,0,0,0-7.14,8.42,8.42,0,0,0-1.78-2.86,8,8,0,0,0-2.84-1.92,9.93,9.93,0,0,0-3.74-.68h-2.67a.81.81,0,0,0-.64.3,1.16,1.16,0,0,0-.26.77v15.83a1.09,1.09,0,0,0,.3.81,1.06,1.06,0,0,0,.78.3Z" transform="translate(-13.84 -14.25)"/><path class="cls-1" d="M144.56,124.31a1.28,1.28,0,0,1,.08-.92.73.73,0,0,1,.69-.45h4.39a1.09,1.09,0,0,1,.77.21,1.53,1.53,0,0,1,.3.43l4.26,15.57c.14.57.36.87.67.9s.52-.18.66-.64l4.26-15.66a.88.88,0,0,1,.43-.62,1.54,1.54,0,0,1,.77-.19h2.28a1.54,1.54,0,0,1,.82.21.94.94,0,0,1,.43.56l4.17,15.53a1.39,1.39,0,0,0,.32.6.61.61,0,0,0,.39.17.51.51,0,0,0,.36-.17,1.1,1.1,0,0,0,.26-.43l4.35-15.83a.76.76,0,0,1,.38-.47,1.31,1.31,0,0,1,.69-.17h4.39a.71.71,0,0,1,.68.45,1.23,1.23,0,0,1,.09.92l-7.74,28.38a.81.81,0,0,1-.47.58,1.74,1.74,0,0,1-.78.2H168a1.41,1.41,0,0,1-.69-.17,1,1,0,0,1-.43-.65l-3.4-12.47a.41.41,0,0,0-.41-.36q-.32,0-.45.45l-3.39,12.42a.91.91,0,0,1-.43.56,1.39,1.39,0,0,1-.78.22H153.5a1.3,1.3,0,0,1-.73-.22.91.91,0,0,1-.43-.56Z" transform="translate(-13.84 -14.25)"/><path class="cls-1" d="M190.35,122.94a1,1,0,0,1,.77.3,1.07,1.07,0,0,1,.31.82v28.33a1.06,1.06,0,0,1-.31.76,1,1,0,0,1-.77.32h-4.08a1,1,0,0,1-.78-.32,1.09,1.09,0,0,1-.3-.76V124.06a1.1,1.1,0,0,1,.3-.82,1.06,1.06,0,0,1,.78-.3Z" transform="translate(-13.84 -14.25)"/><path class="cls-1" d="M195.08,124.06a1.14,1.14,0,0,1,.3-.8,1,1,0,0,1,.78-.32h19.48a1.06,1.06,0,0,1,.75.32,1.11,1.11,0,0,1,.32.8v4a1.09,1.09,0,0,1-.32.79,1,1,0,0,1-.75.33h-5.72a.82.82,0,0,0-.65.3,1,1,0,0,0-.26.64v22.23a1.09,1.09,0,0,1-.3.76,1,1,0,0,1-.77.32h-4.09a1,1,0,0,1-.77-.32,1.09,1.09,0,0,1-.3-.76v-22.1a1.21,1.21,0,0,0-.26-.73.73.73,0,0,0-.6-.34h-5.76a1,1,0,0,1-.78-.33,1.11,1.11,0,0,1-.3-.79Z" transform="translate(-13.84 -14.25)"/><path class="cls-1" d="M225.31,122.94a1,1,0,0,1,.77.3,1.11,1.11,0,0,1,.31.82v10.49a1.22,1.22,0,0,0,.25.79.83.83,0,0,0,.69.33h9.37a.86.86,0,0,0,.67-.33,1.14,1.14,0,0,0,.28-.79V124.06a1.1,1.1,0,0,1,.3-.82,1.06,1.06,0,0,1,.78-.3h4.08a1,1,0,0,1,.77.3,1.11,1.11,0,0,1,.31.82v28.33a1.1,1.1,0,0,1-.31.76,1,1,0,0,1-.77.32h-4.08a1,1,0,0,1-.78-.32,1.09,1.09,0,0,1-.3-.76V143a1.17,1.17,0,0,0-.26-.78.86.86,0,0,0-.69-.3h-9.24a1,1,0,0,0-.77.3,1,1,0,0,0-.3.78v9.41a1.1,1.1,0,0,1-.31.76,1,1,0,0,1-.77.32h-4.08a1,1,0,0,1-.78-.32,1.09,1.09,0,0,1-.3-.76V124.06a1.1,1.1,0,0,1,.3-.82,1.06,1.06,0,0,1,.78-.3Z" transform="translate(-13.84 -14.25)"/><path class="cls-1" d="M277.08,122.94a1,1,0,0,1,.75.32,1.08,1.08,0,0,1,.33.8v4a1.06,1.06,0,0,1-.33.79,1,1,0,0,1-.75.33H265.81a.8.8,0,0,0-.6.3,1,1,0,0,0-.25.64v4.56a1,1,0,0,0,.25.67.84.84,0,0,0,.6.28h11.27a1.05,1.05,0,0,1,.75.3,1,1,0,0,1,.33.77v4.09a1,1,0,0,1-.33.77,1.05,1.05,0,0,1-.75.3H265.81a.81.81,0,0,0-.6.28,1,1,0,0,0-.25.67v9.54a1.1,1.1,0,0,1-.31.76,1,1,0,0,1-.77.32H259.8a1,1,0,0,1-.78-.32,1.09,1.09,0,0,1-.3-.76V124.06a1.1,1.1,0,0,1,.3-.82,1.06,1.06,0,0,1,.78-.3Z" transform="translate(-13.84 -14.25)"/><path class="cls-1" d="M289.55,146c-.57.2-.86.53-.86,1v5.41a1.09,1.09,0,0,1-.3.76,1,1,0,0,1-.77.32h-4.09a1,1,0,0,1-.77-.32,1.09,1.09,0,0,1-.3-.76V124.06a1.1,1.1,0,0,1,.3-.82,1,1,0,0,1,.77-.3h7.14a27,27,0,0,1,5.76.56,10.92,10.92,0,0,1,4.26,1.85,8.22,8.22,0,0,1,2.62,3.39,13.3,13.3,0,0,1,.9,5.21,9.25,9.25,0,0,1-1.24,4.58,14.22,14.22,0,0,1-3.19,3.84,2.91,2.91,0,0,0-.86,1,2,2,0,0,0,.18,1.32l3.61,7.44a1.56,1.56,0,0,1,.13.92c-.06.27-.33.41-.82.41h-4.56a1.21,1.21,0,0,1-.81-.22,1.4,1.4,0,0,1-.39-.43L292.47,146c-.05-.14-.21-.24-.47-.3a3,3,0,0,0-.86,0l-.75.09A4.38,4.38,0,0,0,289.55,146Zm.09-16.77a.94.94,0,0,0-.67.27.91.91,0,0,0-.28.67v8.52a1.2,1.2,0,0,0,.24.77.79.79,0,0,0,.66.3h1.08a9.68,9.68,0,0,0,2.92-.41,7.18,7.18,0,0,0,2.3-1.14,5.41,5.41,0,0,0,1.51-1.67,4.1,4.1,0,0,0,.54-2.07,5.63,5.63,0,0,0-.54-2.62,3.91,3.91,0,0,0-1.51-1.61,6.26,6.26,0,0,0-2.3-.8,18.81,18.81,0,0,0-2.92-.21Z" transform="translate(-13.84 -14.25)"/><path class="cls-1" d="M313.89,122.94a1,1,0,0,1,.77.3,1.1,1.1,0,0,1,.3.82v28.33a1.09,1.09,0,0,1-.3.76,1,1,0,0,1-.77.32H309.8a1,1,0,0,1-.77-.32,1.09,1.09,0,0,1-.3-.76V124.06a1.1,1.1,0,0,1,.3-.82,1,1,0,0,1,.77-.3Z" transform="translate(-13.84 -14.25)"/><path class="cls-1" d="M338.7,122.94a1,1,0,0,1,.75.32,1.07,1.07,0,0,1,.32.8v4a1,1,0,0,1-.32.79,1,1,0,0,1-.75.33H327.43a.73.73,0,0,0-.62.34,1.25,1.25,0,0,0-.24.73v4.26a1.28,1.28,0,0,0,.24.79.74.74,0,0,0,.62.33H338.7a1.05,1.05,0,0,1,.75.3,1,1,0,0,1,.32.77v4.09a1,1,0,0,1-.32.77,1.05,1.05,0,0,1-.75.3H327.43a.78.78,0,0,0-.6.28,1,1,0,0,0-.26.67v3.44a.94.94,0,0,0,.28.69.92.92,0,0,0,.63.25H338.7a1.05,1.05,0,0,1,.75.3,1,1,0,0,1,.32.78v4.08a1,1,0,0,1-.32.78,1.05,1.05,0,0,1-.75.3H321.41a1,1,0,0,1-.77-.32,1.09,1.09,0,0,1-.3-.76V124.06a1.1,1.1,0,0,1,.3-.82,1,1,0,0,1,.77-.3Z" transform="translate(-13.84 -14.25)"/><path class="cls-1" d="M366.65,122.94a1,1,0,0,1,.77.3,1.1,1.1,0,0,1,.3.82v28.33a1.09,1.09,0,0,1-.3.76,1,1,0,0,1-.77.32h-3.87a1.27,1.27,0,0,1-1.16-.52l-9.38-15.65a.45.45,0,0,0-.25-.19.47.47,0,0,0-.37,0,.55.55,0,0,0-.32.3,1.6,1.6,0,0,0-.13.75v14.23a1.09,1.09,0,0,1-.3.76,1,1,0,0,1-.78.32H346a1,1,0,0,1-.78-.32,1.09,1.09,0,0,1-.3-.76V124.06a1.1,1.1,0,0,1,.3-.82,1.07,1.07,0,0,1,.78-.3h4.08a1.31,1.31,0,0,1,1,.64l9.33,15.57a1,1,0,0,0,.3.28.34.34,0,0,0,.32,0,.63.63,0,0,0,.28-.3,1.71,1.71,0,0,0,.13-.79V124.06a1.1,1.1,0,0,1,.3-.82,1,1,0,0,1,.77-.3Z" transform="translate(-13.84 -14.25)"/><path class="cls-1" d="M374,153.47a1,1,0,0,1-.78-.32,1.09,1.09,0,0,1-.3-.76V124.06a1.1,1.1,0,0,1,.3-.82,1.06,1.06,0,0,1,.78-.3h8.73a15.51,15.51,0,0,1,6.06,1.16,14.65,14.65,0,0,1,4.84,3.22,15.06,15.06,0,0,1,3.2,4.86,15.78,15.78,0,0,1,1.16,6.07,15.59,15.59,0,0,1-1.16,6,14.65,14.65,0,0,1-8,8,15.69,15.69,0,0,1-6.06,1.16Zm8.73-6.24a10,10,0,0,0,3.74-.68,8.2,8.2,0,0,0,2.84-1.9,8.29,8.29,0,0,0,1.78-2.83,10.59,10.59,0,0,0,0-7.14,8.42,8.42,0,0,0-1.78-2.86,8.11,8.11,0,0,0-2.84-1.92,10,10,0,0,0-3.74-.68H380a.8.8,0,0,0-.64.3,1.11,1.11,0,0,0-.26.77v15.83a1.09,1.09,0,0,0,.3.81,1,1,0,0,0,.77.3Z" transform="translate(-13.84 -14.25)"/><path class="cls-1" d="M415,131.41a2.9,2.9,0,0,0-.43-1.31,3.18,3.18,0,0,0-.83-.88,3.33,3.33,0,0,0-1.1-.5,5.16,5.16,0,0,0-1.25-.15q-3.78,0-3.78,2.88a1.88,1.88,0,0,0,1.07,1.66,16.16,16.16,0,0,0,2.69,1.18l3.51,1.2a15.39,15.39,0,0,1,3.5,1.72,9.64,9.64,0,0,1,2.69,2.71,7.5,7.5,0,0,1,1.07,4.17,9.35,9.35,0,0,1-.92,4.24,9.48,9.48,0,0,1-2.45,3.07,10.22,10.22,0,0,1-3.49,1.87,13,13,0,0,1-4,.63,12.46,12.46,0,0,1-4.1-.67,10.49,10.49,0,0,1-3.44-1.91,9,9,0,0,1-2.35-3.06,9.51,9.51,0,0,1-.86-4.12,1.09,1.09,0,0,1,.3-.76,1,1,0,0,1,.78-.32h4.08a.88.88,0,0,1,.73.32,1.71,1.71,0,0,1,.35.76,4.06,4.06,0,0,0,1.48,2.68,5.09,5.09,0,0,0,3.08.84,5.31,5.31,0,0,0,3.39-.92,3.18,3.18,0,0,0,1.16-2.65,2.85,2.85,0,0,0-1.07-2.38,8.94,8.94,0,0,0-2.69-1.38c-1.07-.36-2.23-.7-3.48-1a15.22,15.22,0,0,1-3.48-1.38,7.79,7.79,0,0,1-2.69-2.38,6.91,6.91,0,0,1-1.08-4.09,8.21,8.21,0,0,1,1-4.1,8.69,8.69,0,0,1,2.45-2.78,10.3,10.3,0,0,1,3.25-1.57,11.57,11.57,0,0,1,6.73,0,9.77,9.77,0,0,1,3.18,1.62,8.6,8.6,0,0,1,2.36,2.77,8.13,8.13,0,0,1,.93,4,1.05,1.05,0,0,1-.3.75,1,1,0,0,1-.78.32H416.1a.91.91,0,0,1-.75-.32A1.29,1.29,0,0,1,415,131.41Z" transform="translate(-13.84 -14.25)"/><path class="cls-1" d="M49,160.66a.39.39,0,0,1,0-.28.24.24,0,0,1,.21-.14H50.6a.33.33,0,0,1,.24.07.38.38,0,0,1,.09.13l1.31,4.78c0,.17.11.27.2.27s.16-.05.21-.19l1.3-4.81a.25.25,0,0,1,.14-.19.44.44,0,0,1,.23-.06H55a.41.41,0,0,1,.25.07.29.29,0,0,1,.14.17l1.28,4.76a.38.38,0,0,0,.1.19.18.18,0,0,0,.11,0,.21.21,0,0,0,.12,0,.57.57,0,0,0,.08-.13l1.33-4.86a.29.29,0,0,1,.12-.15.46.46,0,0,1,.21,0h1.35a.24.24,0,0,1,.21.14.39.39,0,0,1,0,.28L58,169.38a.25.25,0,0,1-.15.17.53.53,0,0,1-.24.06H56.2a.36.36,0,0,1-.21-.05.28.28,0,0,1-.14-.2l-1-3.83a.14.14,0,0,0-.12-.11c-.07,0-.12,0-.14.14l-1,3.82a.27.27,0,0,1-.13.17.48.48,0,0,1-.24.06H51.76a.43.43,0,0,1-.22-.06.32.32,0,0,1-.14-.17Z" transform="translate(-13.84 -14.25)"/><path class="cls-1" d="M67.5,160.24a.32.32,0,0,1,.24.09.35.35,0,0,1,.09.25v3.22a.41.41,0,0,0,.08.25.27.27,0,0,0,.21.1H71a.26.26,0,0,0,.2-.1.37.37,0,0,0,.09-.25v-3.22a.35.35,0,0,1,.09-.25.32.32,0,0,1,.24-.09h1.26a.32.32,0,0,1,.23.09.35.35,0,0,1,.09.25v8.7a.32.32,0,0,1-.09.23.29.29,0,0,1-.23.1H71.62a.3.3,0,0,1-.24-.1.32.32,0,0,1-.09-.23v-2.89a.38.38,0,0,0-.08-.24.26.26,0,0,0-.21-.09H68.16a.32.32,0,0,0-.24.09.34.34,0,0,0-.09.24v2.89a.32.32,0,0,1-.09.23.3.3,0,0,1-.24.1H66.25a.3.3,0,0,1-.24-.1.32.32,0,0,1-.09-.23v-8.7a.35.35,0,0,1,.09-.25.32.32,0,0,1,.24-.09Z" transform="translate(-13.84 -14.25)"/><path class="cls-1" d="M85,169.61a1.62,1.62,0,0,1-.3,0,.26.26,0,0,1-.23-.2L84,168a.59.59,0,0,0-.14-.23.28.28,0,0,0-.23-.08H81.5a.29.29,0,0,0-.21.09.69.69,0,0,0-.11.17l-.48,1.4a.26.26,0,0,1-.23.2,1.57,1.57,0,0,1-.29,0H79a.2.2,0,0,1-.2-.13.34.34,0,0,1,0-.28l3.07-8.75a.31.31,0,0,1,.14-.14.35.35,0,0,1,.21-.07H83a.36.36,0,0,1,.2.06.25.25,0,0,1,.13.14l3.08,8.76a.44.44,0,0,1,0,.28.19.19,0,0,1-.21.13Zm-2.87-4.06a.25.25,0,0,0,0,.17c0,.05.12.08.27.08h.49c.12,0,.19,0,.2-.07a.29.29,0,0,0,0-.16l-.31-.88a.15.15,0,0,0-.19-.12.24.24,0,0,0-.18.14Z" transform="translate(-13.84 -14.25)"/><path class="cls-1" d="M90.75,160.58a.3.3,0,0,1,.1-.24.29.29,0,0,1,.23-.1h6a.33.33,0,0,1,.24.1.33.33,0,0,1,.1.24v1.24a.37.37,0,0,1-.1.25.37.37,0,0,1-.24.1H95.31a.25.25,0,0,0-.2.09.32.32,0,0,0-.08.2v6.82a.32.32,0,0,1-.09.23.3.3,0,0,1-.24.1H93.45a.3.3,0,0,1-.24-.1.32.32,0,0,1-.09-.23V162.5a.4.4,0,0,0-.08-.23.24.24,0,0,0-.19-.1H91.08a.33.33,0,0,1-.23-.1.33.33,0,0,1-.1-.25Z" transform="translate(-13.84 -14.25)"/><path class="cls-1" d="M116.08,169.61a1.62,1.62,0,0,1-.3,0,.26.26,0,0,1-.23-.2l-.47-1.35a1,1,0,0,0-.14-.23.31.31,0,0,0-.23-.08h-2.09a.29.29,0,0,0-.21.09.69.69,0,0,0-.11.17l-.47,1.4a.28.28,0,0,1-.23.2,1.62,1.62,0,0,1-.3,0h-1.2a.19.19,0,0,1-.19-.13.34.34,0,0,1,0-.28l3.08-8.75a.25.25,0,0,1,.13-.14.35.35,0,0,1,.21-.07h.75a.42.42,0,0,1,.21.06.27.27,0,0,1,.12.14l3.08,8.76a.44.44,0,0,1,0,.28c0,.09-.1.13-.21.13Zm-2.87-4.06a.25.25,0,0,0,0,.17c0,.05.11.08.26.08H114c.12,0,.19,0,.2-.07a.29.29,0,0,0,0-.16l-.31-.88a.15.15,0,0,0-.19-.12.24.24,0,0,0-.18.14Z" transform="translate(-13.84 -14.25)"/><path class="cls-1" d="M125.24,167.32c-.17.06-.26.16-.26.3v1.66a.32.32,0,0,1-.09.23.31.31,0,0,1-.24.1h-1.26a.34.34,0,0,1-.33-.33v-8.7a.32.32,0,0,1,.33-.34h2.2a8.57,8.57,0,0,1,1.77.17,3.36,3.36,0,0,1,1.3.57,2.55,2.55,0,0,1,.81,1,4.13,4.13,0,0,1,.28,1.6,2.77,2.77,0,0,1-.39,1.4,4.3,4.3,0,0,1-1,1.19.8.8,0,0,0-.27.31.61.61,0,0,0,0,.4l1.11,2.28a.45.45,0,0,1,0,.29c0,.08-.1.12-.25.12h-1.4a.42.42,0,0,1-.25-.06l-.12-.13-1.16-2.09a.18.18,0,0,0-.14-.09,1.14,1.14,0,0,0-.27,0l-.23,0A1.28,1.28,0,0,0,125.24,167.32Zm0-5.15a.27.27,0,0,0-.29.29v2.61a.36.36,0,0,0,.07.24.26.26,0,0,0,.21.09h.33a3.14,3.14,0,0,0,.89-.12,2.35,2.35,0,0,0,.71-.35,1.62,1.62,0,0,0,.46-.52,1.24,1.24,0,0,0,.17-.63,1.74,1.74,0,0,0-.17-.81,1.21,1.21,0,0,0-.46-.49,2.05,2.05,0,0,0-.71-.25,6.13,6.13,0,0,0-.89-.06Z" transform="translate(-13.84 -14.25)"/><path class="cls-1" d="M141.19,160.24a.29.29,0,0,1,.23.1.3.3,0,0,1,.1.24v1.24a.33.33,0,0,1-.1.25.33.33,0,0,1-.23.1h-3.46a.22.22,0,0,0-.19.1.39.39,0,0,0-.07.23v1.3a.41.41,0,0,0,.07.25.24.24,0,0,0,.19.1h3.46a.32.32,0,0,1,.23.09.3.3,0,0,1,.1.24v1.25a.3.3,0,0,1-.1.24.32.32,0,0,1-.23.09h-3.46a.23.23,0,0,0-.18.09.3.3,0,0,0-.08.2v1.06a.26.26,0,0,0,.09.21.27.27,0,0,0,.19.08h3.44a.32.32,0,0,1,.23.09.3.3,0,0,1,.1.24v1.25a.3.3,0,0,1-.1.24.32.32,0,0,1-.23.09h-5.31a.29.29,0,0,1-.23-.1.33.33,0,0,1-.1-.23v-8.7a.36.36,0,0,1,.1-.25.32.32,0,0,1,.23-.09Z" transform="translate(-13.84 -14.25)"/><path class="cls-1" d="M157.3,169.61a.33.33,0,0,1-.24-.1.32.32,0,0,1-.09-.23V166a.68.68,0,0,0-.06-.29l-.12-.29-2.21-4.77a.39.39,0,0,1,0-.28.19.19,0,0,1,.19-.14h1.19a1.69,1.69,0,0,1,.35,0,.25.25,0,0,1,.19.17l1.26,2.65c0,.12.11.17.18.17a.15.15,0,0,0,.15-.08l1.29-2.74a.26.26,0,0,1,.2-.17,1.58,1.58,0,0,1,.34,0h1.19a.18.18,0,0,1,.19.14.35.35,0,0,1,0,.28l-2.19,4.74-.12.3a.89.89,0,0,0-.06.31v3.27a.34.34,0,0,1-.33.33Z" transform="translate(-13.84 -14.25)"/><path class="cls-1" d="M166.07,164.94a4.55,4.55,0,0,1,.38-1.88A4.81,4.81,0,0,1,169,160.5a4.53,4.53,0,0,1,1.87-.38,4.61,4.61,0,0,1,1.88.38,4.85,4.85,0,0,1,1.53,1,4.8,4.8,0,0,1,1,1.53,4.71,4.71,0,0,1,.37,1.88,4.66,4.66,0,0,1-.37,1.87,4.91,4.91,0,0,1-1,1.53,4.85,4.85,0,0,1-1.53,1,4.78,4.78,0,0,1-1.88.38,4.7,4.7,0,0,1-1.87-.38,4.64,4.64,0,0,1-1.53-1,4.74,4.74,0,0,1-1-1.53A4.5,4.5,0,0,1,166.07,164.94Zm1.93,0a3.09,3.09,0,0,0,.21,1.15,2.85,2.85,0,0,0,.61.91,3.16,3.16,0,0,0,.91.61,3.09,3.09,0,0,0,2.29,0,3,3,0,0,0,.92-.61,2.94,2.94,0,0,0,0-4.13,2.79,2.79,0,0,0-.92-.61,3.09,3.09,0,0,0-2.29,0,3,3,0,0,0-.91.61,2.84,2.84,0,0,0-.61.93A3,3,0,0,0,168,164.94Z" transform="translate(-13.84 -14.25)"/><path class="cls-1" d="M183,160.24a.32.32,0,0,1,.24.09.35.35,0,0,1,.09.25v4.62a10.24,10.24,0,0,0,.06,1.19,2.36,2.36,0,0,0,.23.81,1.11,1.11,0,0,0,.48.48,1.75,1.75,0,0,0,.78.15,1.79,1.79,0,0,0,.79-.15,1.11,1.11,0,0,0,.48-.48,2.36,2.36,0,0,0,.23-.81,10.24,10.24,0,0,0,.06-1.19v-4.62a.35.35,0,0,1,.09-.25.32.32,0,0,1,.24-.09H188a.32.32,0,0,1,.24.09.35.35,0,0,1,.09.25v5.28a4.4,4.4,0,0,1-.83,2.9,4,4,0,0,1-5.27,0,4.46,4.46,0,0,1-.83-2.9v-5.28a.35.35,0,0,1,.09-.25.32.32,0,0,1,.24-.09Z" transform="translate(-13.84 -14.25)"/><path class="cls-1" d="M203.49,160.24a.32.32,0,0,1,.24.09.35.35,0,0,1,.09.25v8.7a.32.32,0,0,1-.09.23.3.3,0,0,1-.24.1h-1.25a.3.3,0,0,1-.24-.1.32.32,0,0,1-.09-.23v-8.7a.35.35,0,0,1,.09-.25.32.32,0,0,1,.24-.09Z" transform="translate(-13.84 -14.25)"/><path class="cls-1" d="M216.63,160.24a.36.36,0,0,1,.24.09.35.35,0,0,1,.09.25v8.7a.32.32,0,0,1-.09.23.33.33,0,0,1-.24.1h-1.19a.41.41,0,0,1-.36-.15l-2.88-4.81a.11.11,0,0,0-.07-.06H212a.17.17,0,0,0-.1.09.63.63,0,0,0,0,.23v4.37a.32.32,0,0,1-.09.23.3.3,0,0,1-.24.1h-1.25a.3.3,0,0,1-.24-.1.32.32,0,0,1-.09-.23v-8.7a.35.35,0,0,1,.09-.25.32.32,0,0,1,.24-.09h1.25a.41.41,0,0,1,.32.2l2.87,4.78a.24.24,0,0,0,.09.08.12.12,0,0,0,.1,0,.21.21,0,0,0,.08-.1.47.47,0,0,0,0-.24v-4.4a.32.32,0,0,1,.33-.34Z" transform="translate(-13.84 -14.25)"/><path class="cls-1" d="M230,160.58a.3.3,0,0,1,.1-.24.29.29,0,0,1,.23-.1h6a.32.32,0,0,1,.23.1.33.33,0,0,1,.1.24v1.24a.37.37,0,0,1-.1.25.37.37,0,0,1-.23.1h-1.76a.25.25,0,0,0-.2.09.32.32,0,0,0-.08.2v6.82a.32.32,0,0,1-.09.23.3.3,0,0,1-.24.1h-1.25a.3.3,0,0,1-.24-.1.32.32,0,0,1-.09-.23V162.5a.4.4,0,0,0-.08-.23.23.23,0,0,0-.19-.1h-1.77a.33.33,0,0,1-.23-.1.33.33,0,0,1-.1-.25Z" transform="translate(-13.84 -14.25)"/><path class="cls-1" d="M243.74,160.24a.32.32,0,0,1,.33.34v3.22a.36.36,0,0,0,.08.25.27.27,0,0,0,.21.1h2.88a.3.3,0,0,0,.2-.1.37.37,0,0,0,.09-.25v-3.22a.35.35,0,0,1,.09-.25.32.32,0,0,1,.24-.09h1.25a.32.32,0,0,1,.24.09.35.35,0,0,1,.09.25v8.7a.32.32,0,0,1-.09.23.3.3,0,0,1-.24.1h-1.25a.3.3,0,0,1-.24-.1.32.32,0,0,1-.09-.23v-2.89a.38.38,0,0,0-.08-.24.29.29,0,0,0-.21-.09H244.4a.32.32,0,0,0-.24.09.34.34,0,0,0-.09.24v2.89a.34.34,0,0,1-.33.33h-1.26a.33.33,0,0,1-.24-.1.32.32,0,0,1-.09-.23v-8.7a.35.35,0,0,1,.09-.25.36.36,0,0,1,.24-.09Z" transform="translate(-13.84 -14.25)"/><path class="cls-1" d="M261.15,160.24a.29.29,0,0,1,.23.1.3.3,0,0,1,.1.24v1.24a.33.33,0,0,1-.1.25.33.33,0,0,1-.23.1h-3.46a.22.22,0,0,0-.19.1.39.39,0,0,0-.07.23v1.3a.41.41,0,0,0,.07.25.24.24,0,0,0,.19.1h3.46a.32.32,0,0,1,.23.09.3.3,0,0,1,.1.24v1.25a.3.3,0,0,1-.1.24.32.32,0,0,1-.23.09h-3.46a.23.23,0,0,0-.18.09.3.3,0,0,0-.08.2v1.06a.29.29,0,0,0,.08.21.32.32,0,0,0,.2.08h3.44a.32.32,0,0,1,.23.09.3.3,0,0,1,.1.24v1.25a.3.3,0,0,1-.1.24.32.32,0,0,1-.23.09h-5.3a.3.3,0,0,1-.24-.1.29.29,0,0,1-.1-.23v-8.7a.32.32,0,0,1,.1-.25.32.32,0,0,1,.24-.09Z" transform="translate(-13.84 -14.25)"/><path class="cls-1" d="M276.86,169.28a.32.32,0,0,1-.09.23.29.29,0,0,1-.23.1h-1.26a.3.3,0,0,1-.24-.1.32.32,0,0,1-.09-.23l.66-8.7a.35.35,0,0,1,.09-.25.32.32,0,0,1,.24-.09h1.39a.32.32,0,0,1,.31.24l1.93,5.36c.07.16.16.22.25.19a.29.29,0,0,0,.19-.14l1.94-5.41a.31.31,0,0,1,.13-.17.31.31,0,0,1,.2-.07h1.37a.37.37,0,0,1,.25.09.36.36,0,0,1,.1.25l.66,8.7a.33.33,0,0,1-.1.23.29.29,0,0,1-.23.1h-1.26a.3.3,0,0,1-.24-.1.32.32,0,0,1-.09-.23l-.29-3.3c0-.16-.06-.24-.16-.24s-.18.08-.25.23l-1.29,3.45a.28.28,0,0,1-.15.15.69.69,0,0,1-.25,0h-1.11a.61.61,0,0,1-.24,0,.26.26,0,0,1-.14-.15l-1.35-3.53c-.05-.13-.12-.18-.22-.14s-.14.15-.16.34Z" transform="translate(-13.84 -14.25)"/><path class="cls-1" d="M290.27,164.94a4.71,4.71,0,0,1,.37-1.88,4.78,4.78,0,0,1,2.57-2.56,4.49,4.49,0,0,1,1.86-.38,4.55,4.55,0,0,1,1.88.38,4.78,4.78,0,0,1,2.57,2.56,4.71,4.71,0,0,1,.37,1.88,4.66,4.66,0,0,1-.37,1.87,4.91,4.91,0,0,1-1,1.53,4.79,4.79,0,0,1-1.54,1,4.71,4.71,0,0,1-1.88.38,4.65,4.65,0,0,1-1.86-.38,4.79,4.79,0,0,1-1.54-1,4.91,4.91,0,0,1-1-1.53A4.66,4.66,0,0,1,290.27,164.94Zm1.93,0a3.09,3.09,0,0,0,.21,1.15,2.85,2.85,0,0,0,.61.91,3,3,0,0,0,.91.61,3.09,3.09,0,0,0,2.29,0,3.08,3.08,0,0,0,.92-.61,2.85,2.85,0,0,0,.61-.91,2.91,2.91,0,0,0,.23-1.15,2.87,2.87,0,0,0-.23-1.14,2.84,2.84,0,0,0-.61-.93,2.89,2.89,0,0,0-2.07-.83,2.8,2.8,0,0,0-2.66,1.76A3,3,0,0,0,292.2,164.94Z" transform="translate(-13.84 -14.25)"/><path class="cls-1" d="M305.44,164.94a4.71,4.71,0,0,1,.37-1.88,5,5,0,0,1,1-1.53,4.79,4.79,0,0,1,1.54-1,4.5,4.5,0,0,1,1.87-.38,4.61,4.61,0,0,1,1.88.38,4.85,4.85,0,0,1,1.53,1,4.8,4.8,0,0,1,1,1.53,4.71,4.71,0,0,1,.38,1.88,4.66,4.66,0,0,1-.38,1.87,4.91,4.91,0,0,1-1,1.53,4.85,4.85,0,0,1-1.53,1,4.78,4.78,0,0,1-1.88.38,4.66,4.66,0,0,1-1.87-.38,4.79,4.79,0,0,1-1.54-1,5.09,5.09,0,0,1-1-1.53A4.66,4.66,0,0,1,305.44,164.94Zm1.93,0a3.09,3.09,0,0,0,.21,1.15,2.85,2.85,0,0,0,.61.91,3.16,3.16,0,0,0,.91.61,3.09,3.09,0,0,0,2.29,0,3,3,0,0,0,.92-.61,2.94,2.94,0,0,0,0-4.13,2.79,2.79,0,0,0-.92-.61,3.09,3.09,0,0,0-2.29,0,3,3,0,0,0-.91.61,2.84,2.84,0,0,0-.61.93A3,3,0,0,0,307.37,164.94Z" transform="translate(-13.84 -14.25)"/><path class="cls-1" d="M321.2,169.61a.34.34,0,0,1-.33-.33v-8.7a.32.32,0,0,1,.33-.34h2.68a4.83,4.83,0,0,1,1.87.36,4.28,4.28,0,0,1,1.48,1,4.62,4.62,0,0,1,1,1.49,4.93,4.93,0,0,1,.35,1.86,4.84,4.84,0,0,1-.35,1.85,4.47,4.47,0,0,1-1,1.48,4.58,4.58,0,0,1-1.48,1,4.82,4.82,0,0,1-1.87.35Zm2.68-1.91a3,3,0,0,0,1.15-.21,2.46,2.46,0,0,0,.87-.58,2.63,2.63,0,0,0,.55-.87,3.07,3.07,0,0,0,.19-1.1,3,3,0,0,0-.19-1.1,2.63,2.63,0,0,0-.55-.87,2.24,2.24,0,0,0-.87-.59,3,3,0,0,0-1.15-.21h-.81a.25.25,0,0,0-.2.09.32.32,0,0,0-.08.24v4.86a.37.37,0,0,0,.09.25.32.32,0,0,0,.24.09Z" transform="translate(-13.84 -14.25)"/><path class="cls-1" d="M347.48,160.24a.29.29,0,0,1,.23.1.3.3,0,0,1,.1.24v1.24a.33.33,0,0,1-.1.25.33.33,0,0,1-.23.1H344a.23.23,0,0,0-.18.09.27.27,0,0,0-.08.2v1.4a.26.26,0,0,0,.08.2.23.23,0,0,0,.18.09h3.46a.32.32,0,0,1,.23.09.3.3,0,0,1,.1.24v1.25a.3.3,0,0,1-.1.24.32.32,0,0,1-.23.09H344a.23.23,0,0,0-.18.09.26.26,0,0,0-.08.2v2.93a.34.34,0,0,1-.33.33h-1.26a.34.34,0,0,1-.33-.33v-8.7a.32.32,0,0,1,.33-.34Z" transform="translate(-13.84 -14.25)"/><path class="cls-1" d="M353.36,164.94a4.71,4.71,0,0,1,.37-1.88,4.8,4.8,0,0,1,1-1.53,4.85,4.85,0,0,1,1.53-1,4.82,4.82,0,0,1,3.75,0,4.78,4.78,0,0,1,2.57,2.56,4.71,4.71,0,0,1,.37,1.88,4.66,4.66,0,0,1-.37,1.87,4.91,4.91,0,0,1-1,1.53,4.79,4.79,0,0,1-1.54,1,4.82,4.82,0,0,1-3.75,0,4.85,4.85,0,0,1-1.53-1,4.91,4.91,0,0,1-1-1.53A4.66,4.66,0,0,1,353.36,164.94Zm1.92,0a3.1,3.1,0,0,0,.22,1.15,2.85,2.85,0,0,0,.61.91,3,3,0,0,0,.91.61,3.09,3.09,0,0,0,2.29,0,3.08,3.08,0,0,0,.92-.61,2.85,2.85,0,0,0,.61-.91,2.91,2.91,0,0,0,.23-1.15,2.87,2.87,0,0,0-.23-1.14,2.84,2.84,0,0,0-.61-.93,2.89,2.89,0,0,0-2.07-.83,2.8,2.8,0,0,0-2.66,1.76A3,3,0,0,0,355.28,164.94Z" transform="translate(-13.84 -14.25)"/><path class="cls-1" d="M371,167.32c-.18.06-.26.16-.26.3v1.66a.34.34,0,0,1-.33.33h-1.26a.34.34,0,0,1-.33-.33v-8.7a.32.32,0,0,1,.33-.34h2.19a8.57,8.57,0,0,1,1.77.17,3.34,3.34,0,0,1,1.31.57,2.55,2.55,0,0,1,.81,1,4.14,4.14,0,0,1,.27,1.6,2.76,2.76,0,0,1-.38,1.4,4.16,4.16,0,0,1-1,1.19.76.76,0,0,0-.26.31.55.55,0,0,0,0,.4L375,169.2a.45.45,0,0,1,0,.29c0,.08-.1.12-.25.12h-1.4a.42.42,0,0,1-.25-.06l-.12-.13-1.16-2.09a.19.19,0,0,0-.15-.09,1,1,0,0,0-.26,0l-.23,0A1.28,1.28,0,0,0,371,167.32Zm0-5.15a.27.27,0,0,0-.29.29v2.61a.36.36,0,0,0,.07.24.25.25,0,0,0,.2.09h.33a3.16,3.16,0,0,0,.9-.12,2.35,2.35,0,0,0,.71-.35,1.62,1.62,0,0,0,.46-.52,1.24,1.24,0,0,0,.17-.63,1.74,1.74,0,0,0-.17-.81,1.21,1.21,0,0,0-.46-.49,2.05,2.05,0,0,0-.71-.25,6.17,6.17,0,0,0-.9-.06Z" transform="translate(-13.84 -14.25)"/><path class="cls-1" d="M383.26,167.16a3.75,3.75,0,0,1,.14-1.09,3,3,0,0,1,.33-.77,3.94,3.94,0,0,1,.44-.59c.15-.17.3-.35.43-.52a2.59,2.59,0,0,0,.34-.58,1.88,1.88,0,0,0,.13-.76.68.68,0,0,0-.32-.62,1.44,1.44,0,0,0-.8-.21,1.41,1.41,0,0,0-.71.18.94.94,0,0,0-.41.64.61.61,0,0,1-.11.23.3.3,0,0,1-.24.1h-1.25a.3.3,0,0,1-.24-.1.3.3,0,0,1-.1-.23,2.51,2.51,0,0,1,.28-1.23,2.62,2.62,0,0,1,.73-.85,2.91,2.91,0,0,1,1-.49,3.59,3.59,0,0,1,1.06-.16,3.8,3.8,0,0,1,1,.15,3.08,3.08,0,0,1,1,.48,2.69,2.69,0,0,1,.75.85,2.5,2.5,0,0,1,.3,1.26,3.19,3.19,0,0,1-.13,1,2.75,2.75,0,0,1-.34.71,3.11,3.11,0,0,1-.44.56,4.51,4.51,0,0,0-.44.54,2.72,2.72,0,0,0-.34.63,2.45,2.45,0,0,0-.13.87.3.3,0,0,1-.1.23.29.29,0,0,1-.23.1h-1.26a.29.29,0,0,1-.23-.1A.3.3,0,0,1,383.26,167.16Zm0,1.62a.93.93,0,0,1,.28-.67.94.94,0,0,1,.7-.28.86.86,0,0,1,.67.28.92.92,0,0,1,.27.67,1,1,0,0,1-.27.7.89.89,0,0,1-.67.27.94.94,0,0,1-1-1Z" transform="translate(-13.84 -14.25)"/><path class="cls-2" d="M237.68,48.71a22.11,22.11,0,0,1-.45,27.88A17.37,17.37,0,0,0,237.68,48.71Z" transform="translate(-13.84 -14.25)"/><path class="cls-2" d="M265.58,57.62a43.38,43.38,0,0,1-23,38.32,2.76,2.76,0,0,1-4.05-2.41l-.11-14a13.4,13.4,0,0,1,2.22-3c7.09-7.46,8.42-20.85.53-27.85-3.5-3.1-7.65-3.1-11.14,0-7.89,7-6.56,20.39.53,27.85a13.33,13.33,0,0,1,2.21,3l-.13,17.64a3.12,3.12,0,0,1-2.59,3.07,43.73,43.73,0,0,1-17-.28,3.11,3.11,0,0,1-2.48-3l-.13-15.64a2.68,2.68,0,0,1,.86-2.18c3.74-3.22,6.28-6.49,5.92-11.7L215.45,47c-.07-.87-1.59-.85-1.62,0l-.57,15.61a1.73,1.73,0,0,1-3.45,0L208.54,47.2a1,1,0,0,0-1.95,0l-1.27,15.51a1.73,1.73,0,0,1-3.45,0l-.57-15.61c0-.87-1.55-.89-1.62,0L198,67.43c-.36,5.21,2.18,8.48,5.92,11.7a2.68,2.68,0,0,1,.86,2.18l-.09,11.5a2.76,2.76,0,0,1-4.14,2.36,43.34,43.34,0,0,1-6.34-4.47l-3.55,3.54,2.62,2.62-1.79,1.79L190.2,97.4l-16,16-7.78-7.77,16-16-1.25-1.25L183,86.58l2.62,2.62,3.54-3.54a43.37,43.37,0,1,1,76.45-28Z" transform="translate(-13.84 -14.25)"/></svg>