<svg id="Layer_1" data-name="Layer 1" xmlns="http://www.w3.org/2000/svg" xmlns:xlink="http://www.w3.org/1999/xlink" viewBox="0 0 53.24 20"><defs><style>.cls-1{fill:url(#linear-gradient);}.cls-2{fill:#fff;}</style><linearGradient id="linear-gradient" y1="10" x2="53.24" y2="10" gradientUnits="userSpaceOnUse"><stop offset="0" stop-color="#fbb040"/><stop offset="0.55" stop-color="#e9b600"/><stop offset="1" stop-color="#ffd555"/></linearGradient></defs><rect class="cls-1" width="53.24" height="20" rx="10"/><path class="cls-2" d="M12.23,14.14a3.26,3.26,0,0,1-2.35-.89v4.33H7.4V6.75H9.85v.81h0a3.16,3.16,0,0,1,2.35-1,3.6,3.6,0,0,1,3.57,3.79A3.62,3.62,0,0,1,12.23,14.14Zm-.74-5.49a1.62,1.62,0,0,0-1.67,1.68,1.68,1.68,0,1,0,3.35,0A1.6,1.6,0,0,0,11.49,8.65Z" transform="translate(0)"/><path class="cls-2" d="M17,1.89h2.48v12H17Z" transform="translate(0)"/><path class="cls-2" d="M23.46,10.17c0,1.41.37,2,1.41,2s1.42-.55,1.42-2V6.75h2.48v4c0,2.41-1.21,3.37-3.9,3.37S21,13.18,21,10.77v-4h2.48Z" transform="translate(0)"/><path class="cls-2" d="M35.78,7.1,35,8.72a4,4,0,0,0-1.6-.45c-.55,0-.77.1-.77.44s.5.49,1.12.68c1,.3,2.18.83,2.18,2.3,0,2.12-1.93,2.45-3.4,2.45a4.29,4.29,0,0,1-2.77-1l1-1.7a3.59,3.59,0,0,0,1.77.83c.35,0,.77,0,.77-.52s-.78-.56-1.59-1a2.17,2.17,0,0,1-1.46-2c0-1.47,1.25-2.31,3.14-2.31A5.48,5.48,0,0,1,35.78,7.1Z" transform="translate(0)"/><path class="cls-2" d="M40.86,11.41V8.52H38V6.07h2.89V3.19H43.3V6.07h2.89V8.52H43.3v2.89Z" transform="translate(0)"/></svg>